<?xml version="1.0" encoding="UTF-8"?>
<svg id="Layer_1" data-name="Layer 1" xmlns="http://www.w3.org/2000/svg" viewBox="0 0 1920 1080">
  <defs>
    <style>
      .cls-1 {
        fill: #fff;
      }
    </style>
  </defs>
  <g>
    <path class="cls-1" d="M133.71,1000.51c-21.26,0-39.31-3.95-54.15-11.86-14.85-7.91-26.14-18.97-33.86-33.2-7.73-14.23-11.6-30.83-11.6-49.81,0-14.76,2.33-28.07,6.98-39.92,4.65-11.86,11.37-22.05,20.16-30.57,8.78-8.52,19.54-15.02,32.28-19.5,12.73-4.48,27.18-6.72,43.35-6.72,8.78,0,17.74.84,26.88,2.5,9.13,1.67,18.09,4.79,26.88,9.36,4.56,2.11,7.68,5.05,9.35,8.83,1.67,3.78,2.19,7.73,1.58,11.86-.62,4.13-2.11,7.91-4.48,11.33-2.37,3.43-5.58,5.71-9.62,6.85-4.04,1.14-8.61.57-13.7-1.71-5.27-2.46-10.98-4.35-17.13-5.67-6.15-1.32-12.65-1.98-19.5-1.98-11.77,0-21.57,2.11-29.38,6.33-7.82,4.22-13.66,10.45-17.52,18.71-3.87,8.26-5.8,18.36-5.8,30.31,0,17.92,4.39,31.45,13.18,40.58,8.78,9.14,21.78,13.7,39,13.7,5.27,0,11.02-.53,17.26-1.58,6.23-1.06,12.52-2.55,18.84-4.48l-8.96,18.18v-45.06h-18.45c-5.98,0-10.59-1.49-13.84-4.48-3.25-2.99-4.88-7.2-4.88-12.65s1.62-9.62,4.88-12.52c3.25-2.9,7.86-4.35,13.84-4.35h39c6.15,0,10.85,1.63,14.1,4.88,3.25,3.25,4.88,7.95,4.88,14.1v58.24c0,5.27-1.1,9.75-3.29,13.44-2.2,3.69-5.66,6.32-10.41,7.91-8.26,2.81-17.22,5.01-26.88,6.59-9.66,1.58-19.33,2.37-28.99,2.37Z"/>
    <path class="cls-1" d="M256.51,999.99c-7.73,0-13.66-2.02-17.79-6.06-4.13-4.04-6.19-9.92-6.19-17.66v-87.23c0-7.55,1.98-13.35,5.93-17.39,3.95-4.04,9.62-6.06,17-6.06s13,2.02,16.87,6.06c3.86,4.04,5.8,9.84,5.8,17.39v10.81h-2.63c1.75-10.54,6.28-18.88,13.57-25.04,7.29-6.15,16.38-9.4,27.27-9.75,5.09-.17,8.91,1.1,11.46,3.82,2.54,2.73,3.91,7.77,4.08,15.15,0,6.33-1.32,11.33-3.95,15.02-2.63,3.69-7.64,5.89-15.02,6.59l-6.06.53c-9.31.88-16.08,3.47-20.29,7.77-4.22,4.31-6.32,10.67-6.32,19.1v43.22c0,7.73-2.02,13.62-6.06,17.66-4.04,4.04-9.93,6.06-17.65,6.06Z"/>
    <path class="cls-1" d="M410.15,1000.51c-14.41,0-26.97-2.73-37.69-8.17-10.72-5.44-19.07-13.26-25.04-23.45-5.97-10.19-8.96-22.22-8.96-36.1,0-10.54,1.67-19.98,5.01-28.33,3.33-8.34,8.17-15.46,14.49-21.35,6.32-5.88,13.88-10.36,22.66-13.44,8.78-3.07,18.62-4.61,29.52-4.61,14.4,0,26.97,2.73,37.68,8.17,10.72,5.45,19.02,13.22,24.9,23.32,5.88,10.1,8.83,22.18,8.83,36.24,0,10.37-1.67,19.76-5.01,28.2-3.34,8.43-8.13,15.59-14.36,21.48-6.24,5.89-13.79,10.37-22.66,13.44-8.87,3.07-18.67,4.61-29.38,4.61ZM410.15,965.99c4.74,0,8.96-1.19,12.65-3.56,3.69-2.37,6.54-5.97,8.57-10.81,2.02-4.83,3.03-11.11,3.03-18.84,0-11.77-2.29-20.25-6.85-25.43-4.57-5.18-10.37-7.77-17.39-7.77-4.74,0-8.96,1.14-12.65,3.43-3.69,2.29-6.59,5.84-8.7,10.67-2.11,4.83-3.16,11.2-3.16,19.11,0,11.59,2.28,20.03,6.85,25.3,4.57,5.27,10.45,7.91,17.66,7.91Z"/>
    <path class="cls-1" d="M569.32,1000.51c-14.58,0-27.27-2.73-38.08-8.17-10.8-5.44-19.2-13.31-25.17-23.59-5.97-10.28-8.96-22.35-8.96-36.24,0-10.54,1.67-19.98,5.01-28.33,3.33-8.34,8.21-15.42,14.62-21.21,6.41-5.8,14.05-10.23,22.93-13.31,8.87-3.07,18.75-4.61,29.65-4.61,5.09,0,10.45.49,16.08,1.45,5.62.97,11.42,2.77,17.39,5.4,4.22,1.58,7.16,4,8.83,7.25,1.67,3.25,2.37,6.72,2.11,10.41-.26,3.69-1.32,7.03-3.16,10.01-1.84,2.99-4.39,5.01-7.64,6.06-3.25,1.05-6.9.62-10.94-1.32-2.81-1.4-5.76-2.41-8.83-3.03-3.08-.61-6.02-.92-8.83-.92-4.74,0-8.92.7-12.52,2.11-3.6,1.41-6.63,3.47-9.09,6.19-2.46,2.73-4.35,6.11-5.67,10.15-1.32,4.04-1.98,8.61-1.98,13.7,0,10.19,2.55,18.18,7.64,23.98,5.09,5.8,12.29,8.7,21.61,8.7,2.81,0,5.71-.3,8.7-.92,2.99-.61,5.97-1.62,8.96-3.03,4.04-1.93,7.64-2.33,10.8-1.19,3.16,1.14,5.71,3.21,7.64,6.19,1.93,2.99,2.99,6.28,3.16,9.88.17,3.6-.62,7.03-2.37,10.28-1.76,3.25-4.74,5.67-8.96,7.25-5.8,2.64-11.46,4.44-17,5.4-5.54.96-10.85,1.45-15.94,1.45Z"/>
    <path class="cls-1" d="M698.71,1000.51c-15.81,0-29.47-2.77-40.98-8.3-11.51-5.54-20.34-13.39-26.48-23.59-6.15-10.19-9.22-22.22-9.22-36.1s2.94-25.08,8.83-35.18c5.88-10.1,13.97-18.01,24.24-23.72,10.28-5.71,22-8.57,35.18-8.57,9.66,0,18.45,1.54,26.35,4.61,7.91,3.08,14.67,7.56,20.29,13.44,5.62,5.89,9.88,12.96,12.78,21.21,2.9,8.26,4.35,17.48,4.35,27.67,0,3.52-.97,6.11-2.9,7.77-1.93,1.67-5.01,2.5-9.22,2.5h-80.64v-22.14h58.5l-4.22,3.43c0-6.5-.88-11.77-2.64-15.81-1.76-4.04-4.35-7.12-7.77-9.22-3.43-2.11-7.69-3.16-12.78-3.16-5.45,0-10.14,1.28-14.1,3.82-3.95,2.55-6.98,6.28-9.09,11.2-2.11,4.92-3.16,11.07-3.16,18.45v2.37c0,12.48,2.77,21.39,8.3,26.75,5.53,5.36,14.1,8.04,25.69,8.04,3.86,0,8.3-.48,13.31-1.45,5.01-.96,9.79-2.33,14.36-4.08,4.57-1.75,8.52-2.06,11.86-.92,3.34,1.14,5.93,3.07,7.77,5.8,1.84,2.73,2.85,5.8,3.03,9.22.17,3.43-.62,6.77-2.37,10.01-1.76,3.25-4.66,5.76-8.7,7.51-6.15,2.81-12.69,4.92-19.63,6.32-6.94,1.4-13.93,2.11-20.95,2.11Z"/>
    <path class="cls-1" d="M798.33,999.99c-7.73,0-13.66-2.02-17.79-6.06-4.13-4.04-6.19-9.92-6.19-17.66v-87.23c0-7.55,1.98-13.35,5.93-17.39,3.95-4.04,9.62-6.06,17-6.06s13,2.02,16.87,6.06c3.86,4.04,5.8,9.84,5.8,17.39v10.81h-2.63c1.75-10.54,6.28-18.88,13.57-25.04,7.29-6.15,16.38-9.4,27.27-9.75,5.09-.17,8.91,1.1,11.46,3.82,2.54,2.73,3.91,7.77,4.08,15.15,0,6.33-1.32,11.33-3.95,15.02-2.63,3.69-7.64,5.89-15.02,6.59l-6.06.53c-9.31.88-16.08,3.47-20.29,7.77-4.22,4.31-6.32,10.67-6.32,19.1v43.22c0,7.73-2.02,13.62-6.06,17.66-4.04,4.04-9.93,6.06-17.65,6.06Z"/>
    <path class="cls-1" d="M934.31,1047.42c-5.45,0-9.84-1.41-13.18-4.22-3.34-2.81-5.4-6.5-6.19-11.07-.79-4.57-.05-9.4,2.24-14.49l17.66-38.21v18.97l-45.06-103.04c-2.29-5.27-3.03-10.19-2.24-14.76.79-4.57,3.12-8.21,6.98-10.94,3.86-2.72,9.13-4.08,15.81-4.08,5.62,0,10.14,1.28,13.57,3.82,3.43,2.55,6.54,7.51,9.35,14.89l26.35,68.52h-8.96l27.93-68.78c2.81-7.2,6.02-12.08,9.62-14.62,3.6-2.55,8.47-3.82,14.62-3.82,5.27,0,9.49,1.36,12.65,4.08,3.16,2.73,5.09,6.37,5.8,10.94.7,4.57-.09,9.49-2.37,14.76l-59.82,134.4c-3.16,7.03-6.63,11.73-10.41,14.1-3.78,2.37-8.57,3.56-14.36,3.56Z"/>
    <path class="cls-1" d="M1137.22,1000.51c-21.26,0-39.31-3.95-54.15-11.86-14.85-7.91-26.14-18.97-33.86-33.2-7.73-14.23-11.6-30.83-11.6-49.81,0-14.76,2.33-28.07,6.98-39.92,4.65-11.86,11.37-22.05,20.16-30.57,8.78-8.52,19.54-15.02,32.28-19.5,12.73-4.48,27.18-6.72,43.35-6.72,8.78,0,17.74.84,26.88,2.5,9.13,1.67,18.09,4.79,26.88,9.36,4.56,2.11,7.68,5.05,9.35,8.83,1.67,3.78,2.19,7.73,1.58,11.86-.62,4.13-2.11,7.91-4.48,11.33-2.37,3.43-5.58,5.71-9.62,6.85-4.04,1.14-8.61.57-13.7-1.71-5.27-2.46-10.98-4.35-17.13-5.67-6.15-1.32-12.65-1.98-19.5-1.98-11.77,0-21.57,2.11-29.38,6.33-7.82,4.22-13.66,10.45-17.52,18.71-3.87,8.26-5.8,18.36-5.8,30.31,0,17.92,4.39,31.45,13.18,40.58,8.78,9.14,21.78,13.7,39,13.7,5.27,0,11.02-.53,17.26-1.58,6.23-1.06,12.52-2.55,18.84-4.48l-8.96,18.18v-45.06h-18.45c-5.98,0-10.59-1.49-13.84-4.48-3.25-2.99-4.88-7.2-4.88-12.65s1.62-9.62,4.88-12.52c3.25-2.9,7.86-4.35,13.84-4.35h39c6.15,0,10.85,1.63,14.1,4.88,3.25,3.25,4.88,7.95,4.88,14.1v58.24c0,5.27-1.1,9.75-3.29,13.44-2.2,3.69-5.66,6.32-10.41,7.91-8.26,2.81-17.22,5.01-26.88,6.59-9.66,1.58-19.33,2.37-28.99,2.37Z"/>
    <path class="cls-1" d="M1306.67,1000.51c-15.81,0-29.47-2.77-40.98-8.3-11.51-5.54-20.34-13.39-26.48-23.59-6.15-10.19-9.22-22.22-9.22-36.1s2.94-25.08,8.83-35.18c5.88-10.1,13.97-18.01,24.24-23.72,10.28-5.71,22-8.57,35.18-8.57,9.66,0,18.45,1.54,26.35,4.61,7.91,3.08,14.67,7.56,20.29,13.44,5.62,5.89,9.88,12.96,12.78,21.21,2.9,8.26,4.35,17.48,4.35,27.67,0,3.52-.97,6.11-2.9,7.77-1.93,1.67-5.01,2.5-9.22,2.5h-80.64v-22.14h58.5l-4.22,3.43c0-6.5-.88-11.77-2.64-15.81-1.76-4.04-4.35-7.12-7.77-9.22-3.43-2.11-7.69-3.16-12.78-3.16-5.45,0-10.14,1.28-14.1,3.82-3.95,2.55-6.98,6.28-9.09,11.2-2.11,4.92-3.16,11.07-3.16,18.45v2.37c0,12.48,2.77,21.39,8.3,26.75,5.53,5.36,14.1,8.04,25.69,8.04,3.86,0,8.3-.48,13.31-1.45,5.01-.96,9.79-2.33,14.36-4.08,4.57-1.75,8.52-2.06,11.86-.92,3.34,1.14,5.93,3.07,7.77,5.8,1.84,2.73,2.85,5.8,3.03,9.22.17,3.43-.62,6.77-2.37,10.01-1.76,3.25-4.66,5.76-8.7,7.51-6.15,2.81-12.69,4.92-19.63,6.32-6.94,1.4-13.93,2.11-20.95,2.11Z"/>
    <path class="cls-1" d="M1405.49,999.99c-7.38,0-13.09-2.02-17.13-6.06-4.04-4.04-6.06-9.92-6.06-17.66v-87.23c0-7.55,1.98-13.35,5.93-17.39,3.95-4.04,9.62-6.06,17-6.06s13,2.02,16.87,6.06c3.86,4.04,5.8,9.84,5.8,17.39v12.39l-2.9-10.8c4.22-8.26,10.23-14.58,18.05-18.97,7.81-4.39,16.73-6.59,26.75-6.59s18.88,1.98,25.56,5.93c6.67,3.95,11.68,10.11,15.02,18.45,3.34,8.35,5.01,18.84,5.01,31.49v55.34c0,7.73-2.02,13.62-6.06,17.66-4.05,4.04-9.84,6.06-17.39,6.06s-13.35-2.02-17.39-6.06c-4.04-4.04-6.06-9.92-6.06-17.66v-53.5c0-7.91-1.36-13.52-4.08-16.87-2.73-3.33-6.72-5.01-11.99-5.01-7.03,0-12.65,2.24-16.87,6.72-4.22,4.48-6.33,10.5-6.33,18.05v50.6c0,15.81-7.91,23.72-23.72,23.72Z"/>
    <path class="cls-1" d="M1565.19,846.88c-8.26,0-14.63-1.93-19.11-5.8-4.48-3.86-6.72-9.49-6.72-16.87s2.24-12.74,6.72-16.6c4.48-3.86,10.85-5.8,19.11-5.8s15.11,1.94,19.5,5.8c4.39,3.86,6.59,9.4,6.59,16.6s-2.2,13-6.59,16.87c-4.39,3.86-10.9,5.8-19.5,5.8ZM1565.19,999.99c-7.38,0-13.09-2.2-17.13-6.59-4.04-4.39-6.06-10.72-6.06-18.97v-83.28c0-8.25,2.02-14.58,6.06-18.97,4.04-4.39,9.75-6.59,17.13-6.59s13.39,2.2,17.52,6.59c4.13,4.39,6.19,10.72,6.19,18.97v83.28c0,8.26-2.02,14.58-6.06,18.97-4.04,4.39-9.93,6.59-17.65,6.59Z"/>
    <path class="cls-1" d="M1664.54,1000.51c-11.25,0-20.47-2.07-27.67-6.19-7.21-4.13-12.61-10.32-16.21-18.58-3.6-8.26-5.4-18.71-5.4-31.36v-55.34c0-7.73,2.02-13.57,6.06-17.52,4.04-3.95,9.84-5.93,17.39-5.93s13.35,1.98,17.39,5.93c4.04,3.95,6.06,9.8,6.06,17.52v56.66c0,6.32,1.32,11.07,3.95,14.23,2.63,3.16,6.76,4.74,12.39,4.74,6.32,0,11.5-2.28,15.55-6.85,4.04-4.56,6.06-10.63,6.06-18.18v-50.6c0-7.73,2.02-13.57,6.06-17.52,4.04-3.95,9.84-5.93,17.39-5.93s13.35,1.98,17.39,5.93c4.04,3.95,6.06,9.8,6.06,17.52v87.23c0,15.81-7.55,23.72-22.66,23.72-7.38,0-13.09-2.02-17.13-6.06-4.05-4.04-6.06-9.92-6.06-17.66v-15.28l4.22,12.91c-3.86,8.61-9.27,15.2-16.21,19.76-6.94,4.57-15.15,6.85-24.64,6.85Z"/>
    <path class="cls-1" d="M1826.09,1000.51c-7.73,0-15.59-.57-23.59-1.71-7.99-1.14-15.24-3.2-21.74-6.19-4.39-1.75-7.51-4.13-9.36-7.11-1.85-2.99-2.73-6.15-2.63-9.49.08-3.34,1.05-6.37,2.9-9.09,1.84-2.72,4.3-4.65,7.38-5.8,3.07-1.14,6.54-1.01,10.41.4,7.38,2.64,14.01,4.53,19.9,5.67,5.88,1.14,11.55,1.71,17,1.71,6.5,0,11.16-.92,13.97-2.77,2.81-1.85,4.22-4.26,4.22-7.25,0-2.63-.92-4.65-2.77-6.06-1.85-1.4-4.44-2.37-7.77-2.9l-29.25-4.74c-10.9-1.93-19.33-5.93-25.3-11.99-5.97-6.06-8.96-14.01-8.96-23.85,0-9.13,2.59-17,7.77-23.59,5.18-6.59,12.29-11.68,21.34-15.28,9.05-3.6,19.46-5.4,31.23-5.4,7.91,0,15.11.57,21.61,1.71,6.5,1.15,12.82,3.21,18.97,6.19,3.86,1.58,6.59,3.87,8.17,6.85,1.58,2.99,2.19,6.11,1.84,9.36-.35,3.25-1.45,6.24-3.29,8.96-1.84,2.73-4.35,4.57-7.51,5.54-3.16.97-6.85.75-11.07-.66-5.8-2.28-10.94-3.95-15.42-5.01-4.48-1.05-8.66-1.58-12.52-1.58-7.21,0-12.3.97-15.28,2.9-2.99,1.93-4.48,4.39-4.48,7.38,0,2.29.79,4.18,2.37,5.67,1.58,1.49,4.04,2.5,7.38,3.03l29.25,5.01c11.24,1.76,19.9,5.58,25.96,11.46,6.06,5.89,9.09,13.84,9.09,23.85,0,14.23-5.45,25.26-16.34,33.07-10.9,7.82-25.39,11.73-43.48,11.73Z"/>
  </g>
  <path class="cls-1" d="M1164.07,356.98c-18.92,0-36.16-10.09-46.22-26.11-13.08-20.84-30.11-37.02-51.03-48.33-80.11-43.35-190.98.13-192.06.57-1.3.49-2.1,1.8-1.96,3.18v.06c.16,1.36,1.18,2.46,2.52,2.73.51.07,50.61,9.93,78.2,75.81,14.36,35.51,41.3,71.04,70.01,88.13,6.75,4.59,14.15,8.14,21.96,10.54,27.49,8.41,52.49,6.75,74.55-.51,3.2-1.05,6.36,1.68,5.75,4.99-15.6,84.12-72.66,134.08-152.14,134.08-100.02,0-174.1-81.49-174.1-240.78,0-145.39,74.09-233.37,177.81-233.37,85.2,0,133.36,46.3,149.1,125.02l1.14,5.72c.41,2.06,2.22,3.54,4.32,3.54h119.31c2.61,0,4.65-2.25,4.39-4.85l-.44-4.41c-12.97-125.95-102.79-220.41-275.97-220.41s-314.86,126.87-314.86,336.16,112.06,328.76,289.86,328.76c17.76,0,34.16-1.06,49.34-3.21,56.6-8.02,104.77-45.33,127.92-97.59h0c1.85-4.18,8.06-3.13,8.42,1.43l6.62,82.35c.18,2.29,2.1,4.05,4.39,4.05h94.32c2.43,0,4.41-1.97,4.41-4.41v-317.16c0-2.43-1.97-4.41-4.41-4.41h-81.28c.09-1.02.14-1.58.14-1.58Z"/>
</svg>