<?xml version="1.0" encoding="UTF-8"?>
<svg id="Layer_1" data-name="Layer 1" xmlns="http://www.w3.org/2000/svg" xmlns:xlink="http://www.w3.org/1999/xlink" viewBox="0 0 1080 1080">
  <defs>
    <style>
      .cls-1 {
        fill: url(#linear-gradient);
      }
    </style>
    <linearGradient id="linear-gradient" x1="824.61" y1="981.48" x2="333.77" y2="167.91" gradientUnits="userSpaceOnUse">
      <stop offset="0" stop-color="#667eea"/>
      <stop offset="1" stop-color="#764ba2"/>
    </linearGradient>
  </defs>
  <path class="cls-1" d="M868.4,527.03c-30.44,0-58.19-16.23-74.37-42.02-21.05-33.54-48.45-59.57-82.11-77.78-128.91-69.76-307.32.21-309.06.91-2.09.79-3.38,2.89-3.15,5.12v.1c.26,2.19,1.9,3.96,4.06,4.39.82.11,81.44,15.98,125.85,121.99,23.11,57.14,66.46,114.32,112.66,141.82,10.87,7.38,22.78,13.1,35.33,16.95,44.24,13.54,84.46,10.86,119.97-.82,5.15-1.69,10.24,2.7,9.25,8.03-25.1,135.36-116.93,215.77-244.83,215.77-160.95,0-280.17-131.14-280.17-387.47,0-233.97,119.22-375.54,286.13-375.54,137.1,0,214.6,74.51,239.93,201.18l1.84,9.2c.66,3.32,3.57,5.7,6.96,5.7h192c4.2,0,7.47-3.62,7.06-7.8l-.71-7.1C994.15,157,849.6,5,570.92,5S64.24,209.17,64.24,545.96s180.32,529.04,466.45,529.04c28.58,0,54.97-1.71,79.4-5.17,91.07-12.91,168.6-72.94,205.85-157.05h0c2.98-6.73,12.97-5.03,13.56,2.3l10.65,132.53c.3,3.69,3.37,6.52,7.07,6.52h151.78c3.92,0,7.09-3.18,7.09-7.09v-510.38c0-3.92-3.18-7.09-7.09-7.09l-130.59-2.54Z"/>
</svg>